<?xml version="1.0" encoding="UTF-8"?>
<svg version="1.1" xmlns="http://www.w3.org/2000/svg" width="512" height="512">
<path d="M0 0 C0.87269531 -0.0038269 1.74539062 -0.00765381 2.64453125 -0.01159668 C4.48699092 -0.0143149 6.32948924 -0.00695994 8.171875 0.00976562 C10.99045934 0.03117752 13.80649485 0.00996199 16.625 -0.015625 C18.41667229 -0.01298171 20.20834299 -0.00785669 22 0 C22.84175781 -0.00809692 23.68351562 -0.01619385 24.55078125 -0.02453613 C30.37508732 0.06870281 30.37508732 0.06870281 33.51074219 2.38964844 C35.34683564 5.03001103 35.79673976 7.10842832 36.25 10.28125 C36.39953125 11.26609375 36.5490625 12.2509375 36.703125 13.265625 C36.80109375 14.01328125 36.8990625 14.7609375 37 15.53125 C39.57988602 15.53125 40.20419107 14.69582792 42.1875 13.09375 C45.77023072 10.49218205 48.46873008 9.44886327 53 9.53125 C57.22977771 12.01633357 60.64557775 14.92055354 64.109375 18.375 C65.02847656 19.29152344 65.94757813 20.20804688 66.89453125 21.15234375 C67.3632666 21.62526855 67.83200195 22.09819336 68.31494141 22.58544922 C69.75334822 24.03462328 71.20219574 25.47274173 72.65234375 26.91015625 C73.56628906 27.82667969 74.48023438 28.74320313 75.421875 29.6875 C76.66855957 30.93756836 76.66855957 30.93756836 77.94042969 32.21289062 C80.8631971 35.50290951 82 37.3563469 82 41.78125 C80.70548151 46.63569433 78.21377251 49.74745056 75 53.53125 C77.10869585 55.63994585 81.37603394 55.35231733 84.23828125 55.73828125 C87.61889446 56.70895237 88.95275764 57.67474478 91 60.53125 C91.52667809 64.59720488 91.17906875 68.41266883 91 72.53125 C96.28 72.53125 101.56 72.53125 107 72.53125 C106.97905273 71.41153809 106.95810547 70.29182617 106.93652344 69.13818359 C106.86389574 64.96741623 106.81811789 60.79670432 106.78027344 56.62548828 C106.76020967 54.82330919 106.73295187 53.02119479 106.69824219 51.21923828 C106.64949171 48.62255864 106.62697918 46.02674271 106.609375 43.4296875 C106.58872986 42.6294516 106.56808472 41.8292157 106.54681396 41.00473022 C106.54470904 35.70739678 107.39384455 32.664021 111 28.53125 C115.57111645 24.8571468 119.0899376 23.95131655 124.81835938 24.02331543 C125.58696037 24.01707547 126.35556137 24.0108355 127.14745331 24.00440645 C129.7132011 23.98849962 132.2779958 24.00107115 134.84375 24.01367188 C136.68709872 24.00824972 138.53044311 24.00112653 140.3737793 23.99243164 C145.37377562 23.97420655 150.37344155 23.9812625 155.3734436 23.99394798 C160.60769537 24.00407983 165.84191899 23.99468179 171.07617188 23.98840332 C179.86593704 23.98112747 188.65556775 23.99071303 197.4453125 24.00976562 C207.60534186 24.03153421 217.76505014 24.0244828 227.92507172 24.00246 C236.65050758 23.98430428 245.37584682 23.98174854 254.10129547 23.99221468 C259.31164309 23.99844864 264.52183983 23.99928785 269.73217773 23.98606873 C274.63081888 23.9745084 279.52904633 23.98253942 284.42764282 24.00564575 C286.22473463 24.01093185 288.0218613 24.00942076 289.81893921 24.00059509 C292.27364196 23.98965182 294.72702199 24.00338737 297.18164062 24.02331543 C297.89156914 24.01439254 298.60149765 24.00546966 299.33293915 23.99627638 C304.33168952 24.07490703 307.1355771 25.42516231 311 28.53125 C315.27569724 33.4313376 315.55050571 37.23247708 315.390625 43.4296875 C315.38496521 44.26464752 315.37930542 45.09960754 315.37347412 45.95986938 C315.35120223 48.60926266 315.30102523 51.25727016 315.25 53.90625 C315.22992302 55.70961579 315.21167435 57.51300292 315.1953125 59.31640625 C315.15136786 63.72188269 315.08240601 68.12633194 315 72.53125 C316.23878906 72.51900391 317.47757812 72.50675781 318.75390625 72.49414062 C338.48366351 72.2991014 357.70871656 83.59289229 371.625 96.71875 C388.60258194 114.42524423 395.69251518 135.78551853 395.46826172 159.95141602 C394.81799783 183.33197765 384.64453144 203.91037109 367.8203125 220.1171875 C358.84630858 227.79853712 348.25602918 233.90281079 337 237.53125 C336.19554443 237.80267822 335.39108887 238.07410645 334.56225586 238.35375977 C322.86484494 241.68509615 310.73339234 240.85641239 298.6875 240.71875 C296.38607646 240.70367624 294.08464338 240.6899926 291.78320312 240.67773438 C286.18859112 240.64494184 280.59434097 240.59495612 275 240.53125 C275.02094727 241.65096191 275.04189453 242.77067383 275.06347656 243.92431641 C275.13610426 248.09508377 275.18188211 252.26579568 275.21972656 256.43701172 C275.23979033 258.23919081 275.26704813 260.04130521 275.30175781 261.84326172 C275.35050829 264.43994136 275.37302082 267.03575729 275.390625 269.6328125 C275.41127014 270.4330484 275.43191528 271.2332843 275.45318604 272.05776978 C275.45529096 277.35510322 274.60615545 280.398479 271 284.53125 C266.42888355 288.2053532 262.9100624 289.11118345 257.18164062 289.03918457 C256.02873913 289.04854451 256.02873913 289.04854451 254.85254669 289.05809355 C252.2867989 289.07400038 249.7220042 289.06142885 247.15625 289.04882812 C245.31290128 289.05425028 243.46955689 289.06137347 241.6262207 289.07006836 C236.62622438 289.08829345 231.62655845 289.0812375 226.6265564 289.06855202 C221.39230463 289.05842017 216.15808101 289.06781821 210.92382812 289.07409668 C202.13406296 289.08137253 193.34443225 289.07178697 184.5546875 289.05273438 C174.39465814 289.03096579 164.23494986 289.0380172 154.07492828 289.06004 C145.34949242 289.07819572 136.62415318 289.08075146 127.89870453 289.07028532 C122.68835691 289.06405136 117.47816017 289.06321215 112.26782227 289.07643127 C107.36918112 289.0879916 102.47095367 289.07996058 97.57235718 289.05685425 C95.77526537 289.05156815 93.9781387 289.05307924 92.18106079 289.06190491 C89.72635804 289.07284818 87.27297801 289.05911263 84.81835938 289.03918457 C83.75346661 289.0525689 83.75346661 289.0525689 82.66706085 289.06622362 C77.66831048 288.98759297 74.8644229 287.63733769 71 284.53125 C66.72430276 279.6311624 66.44949429 275.83002292 66.609375 269.6328125 C66.61503479 268.79785248 66.62069458 267.96289246 66.62652588 267.10263062 C66.64879777 264.45323734 66.69897477 261.80522984 66.75 259.15625 C66.77007698 257.35288421 66.78832565 255.54949708 66.8046875 253.74609375 C66.84863214 249.34061731 66.91759399 244.93616806 67 240.53125 C59.72643034 240.62451504 52.45316267 240.73193206 45.17993164 240.84863281 C42.7118794 240.88663009 40.24377727 240.92153067 37.77563477 240.953125 C11.77467512 241.29004774 -11.87025439 241.96234759 -32.09765625 260.53515625 C-45.96391004 275.08475725 -51.53459878 291.74397845 -51.34716797 311.45874023 C-50.90833108 328.4673023 -44.0573231 344.3271421 -32 356.53125 C-19.5326179 367.54559908 -5.31519718 373.25151706 11 375.53125 C10.9685791 373.89712158 10.9685791 373.89712158 10.93652344 372.22998047 C10.86388135 368.17103322 10.81811282 364.11214294 10.78027344 360.05273438 C10.7602129 358.29905521 10.73295749 356.54544247 10.69824219 354.79199219 C10.64947698 352.26480682 10.62697608 349.73850909 10.609375 347.2109375 C10.58872986 346.43257538 10.56808472 345.65421326 10.54681396 344.8522644 C10.54467659 339.61490119 11.44879159 336.62170505 15 332.53125 C19.57036714 328.85627993 23.09019156 327.95131974 28.81835938 328.02331543 C29.58696037 328.01707547 30.35556137 328.0108355 31.14745331 328.00440645 C33.7132011 327.98849962 36.2779958 328.00107115 38.84375 328.01367188 C40.68709872 328.00824972 42.53044311 328.00112653 44.3737793 327.99243164 C49.37377562 327.97420655 54.37344155 327.9812625 59.3734436 327.99394798 C64.60769537 328.00407983 69.84191899 327.99468179 75.07617188 327.98840332 C83.86593704 327.98112747 92.65556775 327.99071303 101.4453125 328.00976562 C111.60534186 328.03153421 121.76505014 328.0244828 131.92507172 328.00246 C140.65050758 327.98430428 149.37584682 327.98174854 158.10129547 327.99221468 C163.31164309 327.99844864 168.52183983 327.99928785 173.73217773 327.98606873 C178.63081888 327.9745084 183.52904633 327.98253942 188.42764282 328.00564575 C190.22473463 328.01093185 192.0218613 328.00942076 193.81893921 328.00059509 C196.27364196 327.98965182 198.72702199 328.00338737 201.18164062 328.02331543 C202.24653339 328.0099311 202.24653339 328.0099311 203.33293915 327.99627638 C208.33168952 328.07490703 211.1355771 329.42516231 215 332.53125 C219.27569724 337.4313376 219.55050571 341.23247708 219.390625 347.4296875 C219.38496521 348.26464752 219.37930542 349.09960754 219.37347412 349.95986938 C219.35120223 352.60926266 219.30102523 355.25727016 219.25 357.90625 C219.22992302 359.70961579 219.21167435 361.51300292 219.1953125 363.31640625 C219.15136786 367.72188269 219.08240601 372.12633194 219 376.53125 C224.28 376.53125 229.56 376.53125 235 376.53125 C235.061875 375.190625 235.12375 373.85 235.1875 372.46875 C237.20107309 352.93984937 248.13444464 334.67942729 262.93310547 322.13549805 C270.33336266 316.15947628 278.12551368 311.89856966 287 308.53125 C288.11117188 308.098125 289.22234375 307.665 290.3671875 307.21875 C310.36366987 300.68928637 332.73803896 303.28288855 351.375 312.34375 C357.4544114 315.47325126 362.93449341 318.90019379 368 323.53125 C368.89203125 324.33175781 369.7840625 325.13226563 370.703125 325.95703125 C384.90239646 339.36098833 394.62321223 358.12676617 395.43359375 377.86328125 C395.4572833 380.02330799 395.45811186 382.1836917 395.4375 384.34375 C395.42847656 385.48376465 395.41945313 386.6237793 395.41015625 387.79833984 C395.03527 406.09747469 388.46752875 423.89411277 376 437.53125 C375.19949219 438.42328125 374.39898437 439.3153125 373.57421875 440.234375 C360.17026167 454.43364646 341.40448383 464.15446223 321.66796875 464.96484375 C319.50794201 464.9885333 317.3475583 464.98936186 315.1875 464.96875 C314.04748535 464.95972656 312.9074707 464.95070313 311.73291016 464.94140625 C291.73991588 464.53181866 274.13033357 456.75180855 259.5 443.21875 C258.675 442.331875 257.85 441.445 257 440.53125 C256.33355469 439.86996094 255.66710937 439.20867187 254.98046875 438.52734375 C242.87067846 426.00495413 236.03729398 409.90592421 235 392.53125 C229.72 392.53125 224.44 392.53125 219 392.53125 C219.0314209 394.21081787 219.0314209 394.21081787 219.06347656 395.92431641 C219.13610426 400.09508377 219.18188211 404.26579568 219.21972656 408.43701172 C219.23979033 410.23919081 219.26704813 412.04130521 219.30175781 413.84326172 C219.35050829 416.43994136 219.37302082 419.03575729 219.390625 421.6328125 C219.41127014 422.4330484 219.43191528 423.2332843 219.45318604 424.05776978 C219.45529096 429.35510322 218.60615545 432.398479 215 436.53125 C210.42888355 440.2053532 206.9100624 441.11118345 201.18164062 441.03918457 C200.02873913 441.04854451 200.02873913 441.04854451 198.85254669 441.05809355 C196.2867989 441.07400038 193.7220042 441.06142885 191.15625 441.04882812 C189.31290128 441.05425028 187.46955689 441.06137347 185.6262207 441.07006836 C180.62622438 441.08829345 175.62655845 441.0812375 170.6265564 441.06855202 C165.39230463 441.05842017 160.15808101 441.06781821 154.92382812 441.07409668 C146.13406296 441.08137253 137.34443225 441.07178697 128.5546875 441.05273438 C118.39465814 441.03096579 108.23494986 441.0380172 98.07492828 441.06004 C89.34949242 441.07819572 80.62415318 441.08075146 71.89870453 441.07028532 C66.68835691 441.06405136 61.47816017 441.06321215 56.26782227 441.07643127 C51.36918112 441.0879916 46.47095367 441.07996058 41.57235718 441.05685425 C39.77526537 441.05156815 37.9781387 441.05307924 36.18106079 441.06190491 C33.72635804 441.07284818 31.27297801 441.05911263 28.81835938 441.03918457 C27.75346661 441.0525689 27.75346661 441.0525689 26.66706085 441.06622362 C21.66831048 440.98759297 18.8644229 439.63733769 15 436.53125 C10.72430276 431.6311624 10.44949429 427.83002292 10.609375 421.6328125 C10.61503479 420.79785248 10.62069458 419.96289246 10.62652588 419.10263062 C10.64879777 416.45323734 10.69897477 413.80522984 10.75 411.15625 C10.77007698 409.35288421 10.78832565 407.54949708 10.8046875 405.74609375 C10.84863214 401.34061731 10.91759399 396.93616806 11 392.53125 C9.76121094 392.54349609 8.52242188 392.55574219 7.24609375 392.56835938 C-12.48366351 392.7633986 -31.70871656 381.46960771 -45.625 368.34375 C-62.60258194 350.63725577 -69.69251518 329.27698147 -69.46826172 305.11108398 C-68.8175915 281.71591249 -58.63627782 261.18557987 -41.83203125 244.94921875 C-24.66408047 230.29134077 -4.57173652 223.78879598 17.78125 224.140625 C19.21569008 224.14811591 20.65014062 224.15379528 22.08459473 224.15777588 C25.80008874 224.17280891 29.51492401 224.21188689 33.23016357 224.2565918 C37.04527889 224.29803702 40.86050412 224.31589028 44.67578125 224.3359375 C52.11748286 224.378412 59.55864801 224.44637863 67 224.53125 C66.97905273 223.41153809 66.95810547 222.29182617 66.93652344 221.13818359 C66.86389574 216.96741623 66.81811789 212.79670432 66.78027344 208.62548828 C66.76020967 206.82330919 66.73295187 205.02119479 66.69824219 203.21923828 C66.64949171 200.62255864 66.62697918 198.02674271 66.609375 195.4296875 C66.58872986 194.6294516 66.56808472 193.8292157 66.54681396 193.00473022 C66.54470904 187.70739678 67.39384455 184.664021 71 180.53125 C75.57111645 176.8571468 79.0899376 175.95131655 84.81835938 176.02331543 C85.97126087 176.01395549 85.97126087 176.01395549 87.14745331 176.00440645 C89.7132011 175.98849962 92.2779958 176.00107115 94.84375 176.01367188 C96.68709872 176.00824972 98.53044311 176.00112653 100.3737793 175.99243164 C105.37377562 175.97420655 110.37344155 175.9812625 115.3734436 175.99394798 C120.60769537 176.00407983 125.84191899 175.99468179 131.07617188 175.98840332 C139.86593704 175.98112747 148.65556775 175.99071303 157.4453125 176.00976562 C167.60534186 176.03153421 177.76505014 176.0244828 187.92507172 176.00246 C196.65050758 175.98430428 205.37584682 175.98174854 214.10129547 175.99221468 C219.31164309 175.99844864 224.52183983 175.99928785 229.73217773 175.98606873 C234.63081888 175.9745084 239.52904633 175.98253942 244.42764282 176.00564575 C246.22473463 176.01093185 248.0218613 176.00942076 249.81893921 176.00059509 C252.27364196 175.98965182 254.72702199 176.00338737 257.18164062 176.02331543 C257.89156914 176.01439254 258.60149765 176.00546966 259.33293915 175.99627638 C264.33168952 176.07490703 267.1355771 177.42516231 271 180.53125 C275.27569724 185.4313376 275.55050571 189.23247708 275.390625 195.4296875 C275.38496521 196.26464752 275.37930542 197.09960754 275.37347412 197.95986938 C275.35120223 200.60926266 275.30102523 203.25727016 275.25 205.90625 C275.22992302 207.70961579 275.21167435 209.51300292 275.1953125 211.31640625 C275.15136786 215.72188269 275.08240601 220.12633194 275 224.53125 C279.99499354 224.43626906 284.98958188 224.32989784 289.98413086 224.21386719 C291.6761242 224.17605728 293.36818493 224.14113012 295.06030273 224.109375 C318.67012493 223.66113156 339.89947226 221.23692373 358.09765625 204.52734375 C371.96869968 189.97271707 377.52215082 173.32326063 377.34936523 153.60595703 C376.89727366 135.67861034 369.71502043 119.95667529 356.83203125 107.421875 C344.92163002 97.12745785 330.40310647 91.6995447 315 89.53125 C315.02094727 90.62066895 315.04189453 91.71008789 315.06347656 92.83251953 C315.13611865 96.89146678 315.18188718 100.95035706 315.21972656 105.00976562 C315.2397871 106.76344479 315.26704251 108.51705753 315.30175781 110.27050781 C315.35052302 112.79769318 315.37302392 115.32399091 315.390625 117.8515625 C315.41127014 118.62992462 315.43191528 119.40828674 315.45318604 120.2102356 C315.45532341 125.44759881 314.55120841 128.44079495 311 132.53125 C306.42963286 136.20622007 302.90980844 137.11118026 297.18164062 137.03918457 C296.41303963 137.04542453 295.64443863 137.0516645 294.85254669 137.05809355 C292.2867989 137.07400038 289.7220042 137.06142885 287.15625 137.04882812 C285.31290128 137.05425028 283.46955689 137.06137347 281.6262207 137.07006836 C276.62622438 137.08829345 271.62655845 137.0812375 266.6265564 137.06855202 C261.39230463 137.05842017 256.15808101 137.06781821 250.92382812 137.07409668 C242.13406296 137.08137253 233.34443225 137.07178697 224.5546875 137.05273438 C214.39465814 137.03096579 204.23494986 137.0380172 194.07492828 137.06004 C185.34949242 137.07819572 176.62415318 137.08075146 167.89870453 137.07028532 C162.68835691 137.06405136 157.47816017 137.06321215 152.26782227 137.07643127 C147.36918112 137.0879916 142.47095367 137.07996058 137.57235718 137.05685425 C135.77526537 137.05156815 133.9781387 137.05307924 132.18106079 137.06190491 C129.72635804 137.07284818 127.27297801 137.05911263 124.81835938 137.03918457 C124.10843086 137.04810746 123.39850235 137.05703034 122.66706085 137.06622362 C117.66831048 136.98759297 114.8644229 135.63733769 111 132.53125 C106.72430276 127.6311624 106.44949429 123.83002292 106.609375 117.6328125 C106.61503479 116.79785248 106.62069458 115.96289246 106.62652588 115.10263062 C106.64879777 112.45323734 106.69897477 109.80522984 106.75 107.15625 C106.77007698 105.35288421 106.78832565 103.54949708 106.8046875 101.74609375 C106.84863214 97.34061731 106.91759399 92.93616806 107 88.53125 C101.72 88.53125 96.44 88.53125 91 88.53125 C91.0825 90.42875 91.165 92.32625 91.25 94.28125 C91.49187935 99.84447506 91.49187935 99.84447506 89.34375 102.84375 C86.58773478 104.82808096 84.59629529 105.30320782 81.25 105.78125 C80.26515625 105.93078125 79.2803125 106.0803125 78.265625 106.234375 C77.51796875 106.33234375 76.7703125 106.4303125 76 106.53125 C76 109.11113602 76.83542208 109.73544107 78.4375 111.71875 C81.03906795 115.30148072 82.08238673 117.99998008 82 122.53125 C79.51491643 126.76102771 76.61069646 130.17682775 73.15625 133.640625 C72.23972656 134.55972656 71.32320312 135.47882813 70.37890625 136.42578125 C69.90598145 136.8945166 69.43305664 137.36325195 68.94580078 137.84619141 C67.49662672 139.28459822 66.05850827 140.73344574 64.62109375 142.18359375 C63.70457031 143.09753906 62.78804687 144.01148438 61.84375 144.953125 C61.01037109 145.78424805 60.17699219 146.61537109 59.31835938 147.47167969 C56.02834049 150.3944471 54.1749031 151.53125 49.75 151.53125 C44.89555567 150.23673151 41.78379944 147.74502251 38 144.53125 C35.89130415 146.63994585 36.17893267 150.90728394 35.79296875 153.76953125 C34.79187698 157.25609223 33.92510308 158.36548583 31 160.53125 C28.00151508 161.12820137 25.04930432 161.09183146 22 161.0625 C21.12730469 161.0663269 20.25460938 161.07015381 19.35546875 161.07409668 C17.51300908 161.0768149 15.67051076 161.06945994 13.828125 161.05273438 C11.00954066 161.03132248 8.19350515 161.05253801 5.375 161.078125 C3.58332771 161.07548171 1.79165701 161.07035669 0 161.0625 C-0.84175781 161.07059692 -1.68351562 161.07869385 -2.55078125 161.08703613 C-8.37508732 160.99379719 -8.37508732 160.99379719 -11.51074219 158.67285156 C-13.34683564 156.03248897 -13.79673976 153.95407168 -14.25 150.78125 C-14.39953125 149.79640625 -14.5490625 148.8115625 -14.703125 147.796875 C-14.85007812 146.67539062 -14.85007812 146.67539062 -15 145.53125 C-17.57988602 145.53125 -18.20419107 146.36667208 -20.1875 147.96875 C-23.77023072 150.57031795 -26.46873008 151.61363673 -31 151.53125 C-35.22977771 149.04616643 -38.64557775 146.14194646 -42.109375 142.6875 C-43.02847656 141.77097656 -43.94757812 140.85445312 -44.89453125 139.91015625 C-45.3632666 139.43723145 -45.83200195 138.96430664 -46.31494141 138.47705078 C-47.75334822 137.02787672 -49.20219574 135.58975827 -50.65234375 134.15234375 C-51.56628906 133.23582031 -52.48023437 132.31929687 -53.421875 131.375 C-54.66855957 130.12493164 -54.66855957 130.12493164 -55.94042969 128.84960938 C-58.8631971 125.55959049 -60 123.7061531 -60 119.28125 C-58.70548151 114.42680567 -56.21377251 111.31504944 -53 107.53125 C-55.10869585 105.42255415 -59.37603394 105.71018267 -62.23828125 105.32421875 C-65.72484223 104.32312698 -66.83423583 103.45635308 -69 100.53125 C-69.59695137 97.53276508 -69.56058146 94.58055432 -69.53125 91.53125 C-69.5350769 90.65855469 -69.53890381 89.78585938 -69.54284668 88.88671875 C-69.5455649 87.04425908 -69.53820994 85.20176076 -69.52148438 83.359375 C-69.50007248 80.54079066 -69.52128801 77.72475515 -69.546875 74.90625 C-69.54423171 73.11457771 -69.53910669 71.32290701 -69.53125 69.53125 C-69.53934692 68.68949219 -69.54744385 67.84773438 -69.55578613 66.98046875 C-69.46254719 61.15616268 -69.46254719 61.15616268 -67.14160156 58.02050781 C-64.50123897 56.18441436 -62.42282168 55.73451024 -59.25 55.28125 C-58.26515625 55.13171875 -57.2803125 54.9821875 -56.265625 54.828125 C-55.51796875 54.73015625 -54.7703125 54.6321875 -54 54.53125 C-54 51.70417169 -55.37188016 50.58122182 -57.0625 48.34375 C-59.17461703 45.19568985 -59.97450916 43.82184563 -60.3125 39.96875 C-57.23758269 31.91539514 -49.31548822 25.66450863 -43.3125 19.65625 C-42.56677734 18.89828125 -41.82105469 18.1403125 -41.05273438 17.359375 C-39.96895508 16.27269531 -39.96895508 16.27269531 -38.86328125 15.1640625 C-38.21657471 14.51324707 -37.56986816 13.86243164 -36.90356445 13.19189453 C-33.81972272 10.50159166 -31.87258522 9.53125 -27.75 9.53125 C-22.89555567 10.82576849 -19.78379944 13.31747749 -16 16.53125 C-13.89130415 14.42255415 -14.17893267 10.15521606 -13.79296875 7.29296875 C-11.66618667 -0.11409986 -6.68425086 -0.06429625 0 0 Z M2 17.53125 C1.75200688 18.96841942 1.557163 20.41486651 1.38671875 21.86328125 C1.27263672 22.74435547 1.15855469 23.62542969 1.04101562 24.53320312 C0.80696867 26.39394109 0.5828624 28.25595874 0.36914062 30.11914062 C-0.1458111 33.98268551 -0.56602574 36.84522511 -2.66796875 40.16796875 C-6.10038753 42.17452512 -8.07665805 42.16511623 -12 41.53125 C-14.66157385 39.96819463 -16.89293554 38.02309834 -19.1875 35.96875 C-21.40836194 34.00441543 -23.58238817 32.27157715 -26 30.53125 C-30.01713362 30.99226391 -31.98296241 33.05078155 -34.8125 35.84375 C-35.62332031 36.62363281 -36.43414062 37.40351562 -37.26953125 38.20703125 C-39.16925782 40.30271639 -39.16925782 40.30271639 -39.078125 42.4296875 C-37.14764771 46.19271931 -34.26844907 49.31306778 -31.50585938 52.49023438 C-29.01185743 55.53845897 -28.05121152 57.19497299 -27.44140625 61.19921875 C-28 64.53125 -28 64.53125 -29.36328125 66.86328125 C-33.38681547 69.40853919 -37.51702133 69.68300896 -42.1875 70.21875 C-44.0147334 70.44858269 -45.84158394 70.68148732 -47.66796875 70.91796875 C-48.47516357 71.01295654 -49.2823584 71.10794434 -50.11401367 71.20581055 C-52.0067192 71.34577925 -52.0067192 71.34577925 -53 72.53125 C-53.09981214 75.2085638 -53.13879875 77.85429175 -53.125 80.53125 C-53.12886719 81.28148438 -53.13273437 82.03171875 -53.13671875 82.8046875 C-53.47675541 86.46731117 -53.47675541 86.46731117 -52 89.53125 C-50.56283058 89.77924312 -49.11638349 89.974087 -47.66796875 90.14453125 C-46.78689453 90.25861328 -45.90582031 90.37269531 -44.99804688 90.49023438 C-43.13730891 90.72428133 -41.27529126 90.9483876 -39.41210938 91.16210938 C-35.54856449 91.6770611 -32.68602489 92.09727574 -29.36328125 94.19921875 C-27.35672488 97.63163753 -27.36613377 99.60790805 -28 103.53125 C-29.56305537 106.19282385 -31.50815166 108.42418554 -33.5625 110.71875 C-35.52683457 112.93961194 -37.25967285 115.11363817 -39 117.53125 C-38.53898609 121.54838362 -36.48046845 123.51421241 -33.6875 126.34375 C-32.90761719 127.15457031 -32.12773438 127.96539062 -31.32421875 128.80078125 C-29.22853361 130.70050782 -29.22853361 130.70050782 -27.1015625 130.609375 C-23.33853069 128.67889771 -20.21818222 125.79969907 -17.04101562 123.03710938 C-13.99279103 120.54310743 -12.33627701 119.58246152 -8.33203125 118.97265625 C-5 119.53125 -5 119.53125 -2.66796875 120.89453125 C-0.12271081 124.91806547 0.15175896 129.04827133 0.6875 133.71875 C0.91733269 135.5459834 1.15023732 137.37283394 1.38671875 139.19921875 C1.52920044 140.41001099 1.52920044 140.41001099 1.67456055 141.64526367 C1.81452925 143.5379692 1.81452925 143.5379692 3 144.53125 C5.6773138 144.63106214 8.32304175 144.67004875 11 144.65625 C12.12535156 144.66205078 12.12535156 144.66205078 13.2734375 144.66796875 C16.93606117 145.00800541 16.93606117 145.00800541 20 143.53125 C20.24799312 142.09408058 20.442837 140.64763349 20.61328125 139.19921875 C20.72736328 138.31814453 20.84144531 137.43707031 20.95898438 136.52929688 C21.19303133 134.66855891 21.4171376 132.80654126 21.63085938 130.94335938 C22.1458111 127.07981449 22.56602574 124.21727489 24.66796875 120.89453125 C28.10038753 118.88797488 30.07665805 118.89738377 34 119.53125 C36.66157385 121.09430537 38.89293554 123.03940166 41.1875 125.09375 C43.40836194 127.05808457 45.58238817 128.79092285 48 130.53125 C52.01713362 130.07023609 53.98296241 128.01171845 56.8125 125.21875 C57.62332031 124.43886719 58.43414062 123.65898437 59.26953125 122.85546875 C61.16925782 120.75978361 61.16925782 120.75978361 61.078125 118.6328125 C59.14764771 114.86978069 56.26844907 111.74943222 53.50585938 108.57226562 C51.01185743 105.52404103 50.05121152 103.86752701 49.44140625 99.86328125 C50 96.53125 50 96.53125 51.36328125 94.19921875 C55.38681547 91.65396081 59.51702133 91.37949104 64.1875 90.84375 C66.0147334 90.61391731 67.84158394 90.38101268 69.66796875 90.14453125 C70.87876099 90.00204956 70.87876099 90.00204956 72.11401367 89.85668945 C74.0067192 89.71672075 74.0067192 89.71672075 75 88.53125 C75.09981214 85.8539362 75.13879875 83.20820825 75.125 80.53125 C75.12886719 79.78101563 75.13273438 79.03078125 75.13671875 78.2578125 C75.47675541 74.59518883 75.47675541 74.59518883 74 71.53125 C72.56283058 71.28325688 71.11638349 71.088413 69.66796875 70.91796875 C68.78689453 70.80388672 67.90582031 70.68980469 66.99804688 70.57226562 C65.13730891 70.33821867 63.27529126 70.1141124 61.41210938 69.90039062 C57.54856449 69.3854389 54.68602489 68.96522426 51.36328125 66.86328125 C49.35672488 63.43086247 49.36613377 61.45459195 50 57.53125 C51.56305537 54.86967615 53.50815166 52.63831446 55.5625 50.34375 C57.52683457 48.12288806 59.25967285 45.94886183 61 43.53125 C60.53898609 39.51411638 58.48046845 37.54828759 55.6875 34.71875 C54.90761719 33.90792969 54.12773437 33.09710938 53.32421875 32.26171875 C51.22853361 30.36199218 51.22853361 30.36199218 49.1015625 30.453125 C45.33853069 32.38360229 42.21818222 35.26280093 39.04101562 38.02539062 C35.99279103 40.51939257 34.33627701 41.48003848 30.33203125 42.08984375 C27 41.53125 27 41.53125 24.66796875 40.16796875 C22.12271081 36.14443453 21.84824104 32.01422867 21.3125 27.34375 C21.08266731 25.5165166 20.84976268 23.68966606 20.61328125 21.86328125 C20.51829346 21.05608643 20.42330566 20.2488916 20.32543945 19.41723633 C20.18547075 17.5245308 20.18547075 17.5245308 19 16.53125 C16.3226862 16.43143786 13.67695825 16.39245125 11 16.40625 C10.24976563 16.40238281 9.49953125 16.39851563 8.7265625 16.39453125 C5.06393883 16.05449459 5.06393883 16.05449459 2 17.53125 Z M123 40.53125 C123 66.93125 123 93.33125 123 120.53125 C180.75 120.53125 238.5 120.53125 298 120.53125 C298.495 80.93125 298.495 80.93125 299 40.53125 C240.92 40.53125 182.84 40.53125 123 40.53125 Z M83 192.53125 C83 218.93125 83 245.33125 83 272.53125 C141.08 272.53125 199.16 272.53125 259 272.53125 C259 246.13125 259 219.73125 259 192.53125 C200.92 192.53125 142.84 192.53125 83 192.53125 Z M272 337.53125 C259.66880645 349.46282154 252.04601137 363.83877096 251.70776367 381.13378906 C251.63840876 391.05070617 252.00447956 399.32190289 256 408.53125 C256.36222656 409.40652344 256.72445313 410.28179687 257.09765625 411.18359375 C264.13314592 426.66167103 277.48158233 438.36973774 293.0625 444.78125 C310.08668266 450.49599679 328.11383569 449.33624822 344.24072266 441.47021484 C359.76160837 433.18637826 371.29445547 418.95103725 376.50634766 402.25927734 C380.83717306 386.21192344 378.95913413 369.16856653 371.42578125 354.45703125 C362.23172859 339.09074744 348.46750173 327.19962463 331 322.53125 C309.20926252 317.85797821 288.69218357 322.68575916 272 337.53125 Z M27 344.53125 C27 370.93125 27 397.33125 27 424.53125 C85.08 424.53125 143.16 424.53125 203 424.53125 C203 398.13125 203 371.73125 203 344.53125 C144.92 344.53125 86.84 344.53125 27 344.53125 Z " fill="#000000" transform="translate(93,23.46875)"/>
<path d="M0 0 C8.34468007 4.97590182 13.53387008 11.86345977 16.109375 21.2578125 C17.10789012 32.35758522 16.45884702 41.9922991 9.359375 51.0703125 C3.68970122 57.1408723 -3.36319277 60.85433149 -11.66015625 61.59375 C-19.4412515 61.76746925 -26.16911331 61.58646603 -32.890625 57.2578125 C-33.59703125 56.82210937 -34.3034375 56.38640625 -35.03125 55.9375 C-41.93709584 51.25687115 -45.68778524 45.25759899 -47.890625 37.2578125 C-48.88914012 26.15803978 -48.24009702 16.5233259 -41.140625 7.4453125 C-30.84272373 -3.5807232 -13.59449082 -6.52353083 0 0 Z M-29.265625 20.8828125 C-31.46970393 25.46051489 -31.6877889 29.26333661 -30.890625 34.2578125 C-28.56093569 39.09639798 -25.72921048 41.92812319 -20.890625 44.2578125 C-15.89614911 45.0549764 -12.09332739 44.83689143 -7.515625 42.6328125 C-3.93154787 39.39007605 -1.29527259 36.79305354 -0.5078125 31.859375 C-0.25178581 26.17558256 -0.95435568 22.60842595 -4.890625 18.2578125 C-9.24123845 14.32154318 -12.80839506 13.61897331 -18.4921875 13.875 C-23.42586604 14.66246009 -26.02288855 17.29873537 -29.265625 20.8828125 Z " fill="#000000" transform="translate(119.890625,74.7421875)"/>
<path d="M0 0 C2.5 1.5 2.5 1.5 4 4 C4.89523015 8.32694572 4.92034689 10.50857914 2.58984375 14.28515625 C0.48255076 16.94631681 -1.73550557 19.47119549 -4 22 C-5.35477833 23.58544319 -6.69760043 25.18050746 -8.03979492 26.77661133 C-9.44666317 28.44838857 -10.86152063 30.11314772 -12.27734375 31.77734375 C-14.71935267 34.65728912 -17.11680209 37.57109667 -19.5 40.5 C-22.88502953 44.65214054 -26.30092567 48.77603279 -29.75 52.875 C-30.19794922 53.41060547 -30.64589844 53.94621094 -31.10742188 54.49804688 C-38.95792435 63.79500151 -38.95792435 63.79500151 -43.8125 64.75 C-47.34608614 64.50691223 -49.0520288 63.43307347 -51.640625 61.06640625 C-52.33389893 60.43331543 -53.02717285 59.80022461 -53.74145508 59.14794922 C-57.86924792 55.22228481 -61.91892733 51.22469153 -65.9375 47.1875 C-66.79923828 46.32962891 -67.66097656 45.47175781 -68.54882812 44.58789062 C-69.77569336 43.3590918 -69.77569336 43.3590918 -71.02734375 42.10546875 C-71.76718506 41.36449951 -72.50702637 40.62353027 -73.26928711 39.86010742 C-76.17824637 36.73366355 -76.35466617 34.23330867 -76.26953125 29.9765625 C-76 28 -76 28 -74.5 25.5 C-71.67947208 23.80768325 -69.42920215 23.24300742 -66.12890625 23.4375 C-61.77580866 24.58767624 -59.06156862 27.85800489 -56 31 C-55.01856942 31.97301351 -54.03538855 32.94426369 -53.05078125 33.9140625 C-50.34541608 36.58834641 -47.66769942 39.28816585 -45 42 C-41.19610438 38.2932842 -37.68804483 34.42137021 -34.25 30.375 C-33.72559326 29.76035889 -33.20118652 29.14571777 -32.66088867 28.51245117 C-27.1746584 22.06322573 -21.8211 15.50863223 -16.515625 8.91015625 C-15.70609375 7.90855469 -14.8965625 6.90695312 -14.0625 5.875 C-13.33160156 4.96492188 -12.60070312 4.05484375 -11.84765625 3.1171875 C-8.53464659 -0.67911532 -4.79715678 -0.65415774 0 0 Z " fill="#000000" transform="translate(444,376)"/>
<path d="M0 0 C1.26811523 -0.01260864 2.53623047 -0.02521729 3.84277344 -0.03820801 C5.22331295 -0.03104817 6.60384739 -0.02284418 7.984375 -0.01367188 C9.40397406 -0.0163675 10.82357131 -0.02025051 12.24316406 -0.02526855 C15.21567394 -0.03116045 18.18770241 -0.02261142 21.16015625 -0.00390625 C24.96696287 0.01888413 28.77264149 0.00575925 32.57940674 -0.01819611 C35.51001456 -0.03266301 38.44035574 -0.02804423 41.37097168 -0.01768494 C42.77437474 -0.01502007 44.17780215 -0.01827905 45.58117676 -0.02760315 C47.54369635 -0.03778128 49.50630102 -0.01951228 51.46875 0 C52.58475586 0.00318237 53.70076172 0.00636475 54.85058594 0.00964355 C58.37643133 0.63066636 59.55273304 1.73650375 61.734375 4.51757812 C62.265625 6.51757812 62.265625 6.51757812 62.234375 8.51757812 C62.24984375 9.50757812 62.24984375 9.50757812 62.265625 10.51757812 C61.48338263 13.46249057 60.08885796 14.61339613 57.734375 16.51757812 C54.85058594 17.0255127 54.85058594 17.0255127 51.46875 17.03515625 C50.20063477 17.04776489 48.93251953 17.06037354 47.62597656 17.07336426 C46.24543705 17.06620442 44.86490261 17.05800043 43.484375 17.04882812 C42.06477594 17.05152375 40.64517869 17.05540676 39.22558594 17.0604248 C36.25307606 17.0663167 33.28104759 17.05776767 30.30859375 17.0390625 C26.50178713 17.01627212 22.69610851 17.029397 18.88934326 17.05335236 C15.95873544 17.06781926 13.02839426 17.06320048 10.09777832 17.05284119 C8.69437526 17.05017632 7.29094785 17.0534353 5.88757324 17.0627594 C3.92505365 17.07293753 1.96244898 17.05466853 0 17.03515625 C-1.11600586 17.03197388 -2.23201172 17.0287915 -3.38183594 17.0255127 C-6.90768133 16.40448989 -8.08398304 15.2986525 -10.265625 12.51757812 C-10.796875 10.51757812 -10.796875 10.51757812 -10.765625 8.51757812 C-10.78109375 7.52757813 -10.78109375 7.52757813 -10.796875 6.51757812 C-9.30398497 0.89728626 -5.23640274 0.01493199 0 0 Z " fill="#000000" transform="translate(234.265625,95.482421875)"/>
<path d="M0 0 C1.10794922 -0.01260864 2.21589844 -0.02521729 3.35742188 -0.03820801 C4.54916016 -0.03011108 5.74089844 -0.02201416 6.96875 -0.01367188 C8.19658203 -0.01749878 9.42441406 -0.02132568 10.68945312 -0.02526855 C13.28516459 -0.02799029 15.88090336 -0.02061099 18.4765625 -0.00390625 C22.45374599 0.01749738 26.42912282 -0.0037015 30.40625 -0.02929688 C32.92708733 -0.02665365 35.44792353 -0.02152878 37.96875 -0.01367188 C39.16048828 -0.0217688 40.35222656 -0.02986572 41.58007812 -0.03820801 C43.24200195 -0.01929504 43.24200195 -0.01929504 44.9375 0 C45.91138672 0.00318237 46.88527344 0.00636475 47.88867188 0.00964355 C51.19021681 0.65961178 52.38452655 1.93295409 54.46875 4.51757812 C55 6.51757812 55 6.51757812 54.96875 8.51757812 C54.98421875 9.50757813 54.98421875 9.50757813 55 10.51757812 C54.2245785 13.43681202 52.78007479 14.6111988 50.46875 16.51757812 C47.88867188 17.0255127 47.88867188 17.0255127 44.9375 17.03515625 C43.82955078 17.04776489 42.72160156 17.06037354 41.58007812 17.07336426 C40.38833984 17.06526733 39.19660156 17.05717041 37.96875 17.04882812 C36.12700195 17.05456848 36.12700195 17.05456848 34.24804688 17.0604248 C31.65233541 17.06314654 29.05659664 17.05576724 26.4609375 17.0390625 C22.48375401 17.01765887 18.50837718 17.03885775 14.53125 17.06445312 C12.01041267 17.0618099 9.48957647 17.05668503 6.96875 17.04882812 C5.77701172 17.05692505 4.58527344 17.06502197 3.35742188 17.07336426 C1.69549805 17.05445129 1.69549805 17.05445129 0 17.03515625 C-0.97388672 17.03197388 -1.94777344 17.0287915 -2.95117188 17.0255127 C-6.25271681 16.37554447 -7.44702655 15.10220216 -9.53125 12.51757812 C-10.0625 10.51757812 -10.0625 10.51757812 -10.03125 8.51757812 C-10.04671875 7.52757812 -10.04671875 7.52757812 -10.0625 6.51757812 C-8.67664018 1.3002235 -4.95665502 0.01619688 0 0 Z " fill="#000000" transform="translate(145.53125,399.482421875)"/>
<path d="M0 0 C1.10794922 -0.01260864 2.21589844 -0.02521729 3.35742188 -0.03820801 C4.54916016 -0.03011108 5.74089844 -0.02201416 6.96875 -0.01367188 C8.19658203 -0.01749878 9.42441406 -0.02132568 10.68945312 -0.02526855 C13.28516459 -0.02799029 15.88090336 -0.02061099 18.4765625 -0.00390625 C22.45374599 0.01749738 26.42912282 -0.0037015 30.40625 -0.02929688 C32.92708733 -0.02665365 35.44792353 -0.02152878 37.96875 -0.01367188 C39.16048828 -0.0217688 40.35222656 -0.02986572 41.58007812 -0.03820801 C43.24200195 -0.01929504 43.24200195 -0.01929504 44.9375 0 C45.91138672 0.00318237 46.88527344 0.00636475 47.88867188 0.00964355 C51.19021681 0.65961178 52.38452655 1.93295409 54.46875 4.51757812 C55 6.51757812 55 6.51757812 54.96875 8.51757812 C54.98421875 9.50757813 54.98421875 9.50757813 55 10.51757812 C54.2245785 13.43681202 52.78007479 14.6111988 50.46875 16.51757812 C47.88867188 17.0255127 47.88867188 17.0255127 44.9375 17.03515625 C43.82955078 17.04776489 42.72160156 17.06037354 41.58007812 17.07336426 C40.38833984 17.06526733 39.19660156 17.05717041 37.96875 17.04882812 C36.12700195 17.05456848 36.12700195 17.05456848 34.24804688 17.0604248 C31.65233541 17.06314654 29.05659664 17.05576724 26.4609375 17.0390625 C22.48375401 17.01765887 18.50837718 17.03885775 14.53125 17.06445312 C12.01041267 17.0618099 9.48957647 17.05668503 6.96875 17.04882812 C5.77701172 17.05692505 4.58527344 17.06502197 3.35742188 17.07336426 C1.69549805 17.05445129 1.69549805 17.05445129 0 17.03515625 C-0.97388672 17.03197388 -1.94777344 17.0287915 -2.95117188 17.0255127 C-6.25271681 16.37554447 -7.44702655 15.10220216 -9.53125 12.51757812 C-10.0625 10.51757812 -10.0625 10.51757812 -10.03125 8.51757812 C-10.04671875 7.52757812 -10.04671875 7.52757812 -10.0625 6.51757812 C-8.67664018 1.3002235 -4.95665502 0.01619688 0 0 Z " fill="#000000" transform="translate(281.53125,247.482421875)"/>
<path d="M0 0 C0.7115625 -0.01546875 1.423125 -0.0309375 2.15625 -0.046875 C5.60314984 -0.02115187 7.64752229 0.24568064 10.46875 2.28125 C12.08267327 4.61979188 12.54379543 5.69709278 12.5 8.5 C12.5103125 9.16 12.520625 9.82 12.53125 10.5 C11.72167176 13.54782397 10.55457707 14.65682414 8 16.5 C5.16934716 16.90100915 2.81653341 17.06122899 0 17 C-0.7115625 17.01546875 -1.423125 17.0309375 -2.15625 17.046875 C-5.60314984 17.02115187 -7.64752229 16.75431936 -10.46875 14.71875 C-12.08267327 12.38020812 -12.54379543 11.30290722 -12.5 8.5 C-12.51546875 7.51 -12.51546875 7.51 -12.53125 6.5 C-10.82633794 0.08150756 -5.75061521 -0.12501337 0 0 Z " fill="#000000" transform="translate(268,399.5)"/>
<path d="M0 0 C0.7115625 -0.01546875 1.423125 -0.0309375 2.15625 -0.046875 C5.60314984 -0.02115187 7.64752229 0.24568064 10.46875 2.28125 C12.08267327 4.61979188 12.54379543 5.69709278 12.5 8.5 C12.5103125 9.16 12.520625 9.82 12.53125 10.5 C11.72167176 13.54782397 10.55457707 14.65682414 8 16.5 C5.16934716 16.90100915 2.81653341 17.06122899 0 17 C-0.7115625 17.01546875 -1.423125 17.0309375 -2.15625 17.046875 C-5.60314984 17.02115187 -7.64752229 16.75431936 -10.46875 14.71875 C-12.08267327 12.38020812 -12.54379543 11.30290722 -12.5 8.5 C-12.51546875 7.51 -12.51546875 7.51 -12.53125 6.5 C-10.82633794 0.08150756 -5.75061521 -0.12501337 0 0 Z " fill="#000000" transform="translate(228,399.5)"/>
<path d="M0 0 C0.7115625 -0.01546875 1.423125 -0.0309375 2.15625 -0.046875 C5.60314984 -0.02115187 7.64752229 0.24568064 10.46875 2.28125 C12.08267327 4.61979188 12.54379543 5.69709278 12.5 8.5 C12.5103125 9.16 12.520625 9.82 12.53125 10.5 C11.72167176 13.54782397 10.55457707 14.65682414 8 16.5 C5.16934716 16.90100915 2.81653341 17.06122899 0 17 C-0.7115625 17.01546875 -1.423125 17.0309375 -2.15625 17.046875 C-5.60314984 17.02115187 -7.64752229 16.75431936 -10.46875 14.71875 C-12.08267327 12.38020812 -12.54379543 11.30290722 -12.5 8.5 C-12.51546875 7.51 -12.51546875 7.51 -12.53125 6.5 C-10.82633794 0.08150756 -5.75061521 -0.12501337 0 0 Z " fill="#000000" transform="translate(244,247.5)"/>
<path d="M0 0 C0.7115625 -0.01546875 1.423125 -0.0309375 2.15625 -0.046875 C5.60314984 -0.02115187 7.64752229 0.24568064 10.46875 2.28125 C12.08267327 4.61979188 12.54379543 5.69709278 12.5 8.5 C12.5103125 9.16 12.520625 9.82 12.53125 10.5 C11.72167176 13.54782397 10.55457707 14.65682414 8 16.5 C5.16934716 16.90100915 2.81653341 17.06122899 0 17 C-0.7115625 17.01546875 -1.423125 17.0309375 -2.15625 17.046875 C-5.60314984 17.02115187 -7.64752229 16.75431936 -10.46875 14.71875 C-12.08267327 12.38020812 -12.54379543 11.30290722 -12.5 8.5 C-12.51546875 7.51 -12.51546875 7.51 -12.53125 6.5 C-10.82633794 0.08150756 -5.75061521 -0.12501337 0 0 Z " fill="#000000" transform="translate(204,247.5)"/>
<path d="M0 0 C0.7115625 -0.01546875 1.423125 -0.0309375 2.15625 -0.046875 C5.60314984 -0.02115187 7.64752229 0.24568064 10.46875 2.28125 C12.08267327 4.61979188 12.54379543 5.69709278 12.5 8.5 C12.5103125 9.16 12.520625 9.82 12.53125 10.5 C11.72167176 13.54782397 10.55457707 14.65682414 8 16.5 C5.16934716 16.90100915 2.81653341 17.06122899 0 17 C-0.7115625 17.01546875 -1.423125 17.0309375 -2.15625 17.046875 C-5.60314984 17.02115187 -7.64752229 16.75431936 -10.46875 14.71875 C-12.08267327 12.38020812 -12.54379543 11.30290722 -12.5 8.5 C-12.51546875 7.51 -12.51546875 7.51 -12.53125 6.5 C-10.82633794 0.08150756 -5.75061521 -0.12501337 0 0 Z " fill="#000000" transform="translate(364,95.5)"/>
<path d="M0 0 C0.7115625 -0.01546875 1.423125 -0.0309375 2.15625 -0.046875 C5.60314984 -0.02115187 7.64752229 0.24568064 10.46875 2.28125 C12.08267327 4.61979188 12.54379543 5.69709278 12.5 8.5 C12.5103125 9.16 12.520625 9.82 12.53125 10.5 C11.72167176 13.54782397 10.55457707 14.65682414 8 16.5 C5.16934716 16.90100915 2.81653341 17.06122899 0 17 C-0.7115625 17.01546875 -1.423125 17.0309375 -2.15625 17.046875 C-5.60314984 17.02115187 -7.64752229 16.75431936 -10.46875 14.71875 C-12.08267327 12.38020812 -12.54379543 11.30290722 -12.5 8.5 C-12.51546875 7.51 -12.51546875 7.51 -12.53125 6.5 C-10.82633794 0.08150756 -5.75061521 -0.12501337 0 0 Z " fill="#000000" transform="translate(324,95.5)"/>
</svg>
